# xmcd CD database file
# Copyright (C) 1993-1998 Ti Kan
#
# Track frame offsets:
# 150
# 5362
# 21755
# 33052
# 44145
# 55055
# 66265
# 79230
# 89832
# 102835
# 115585
# 124730
# 134642
# 142145
# 150862
# 159980
# 168412
# 179812
# 192877
# 201995
# 217357
# 233645
# 245565
# 260330
# 278955
# 286622
# 294000
# 304927
# 314980
# 319632
# 332232
#
# Disc length: 4605 seconds
#
# Revision: 0
# Processed by: cddbd v1.4b41PL1 Copyright (c) Steve Scherf et al.
# Submitted via: inCDius 1.1
#
DISCID=d211fb1f
DTITLE=Joe Maphis - Joe Maphis and Friends "Live at Town Hall" 1958-1961
DYEAR=1900
DGENRE=
TTITLE0=Intro
TTITLE1=Orange Blossom Special
TTITLE2=Horses Carry Tails
TTITLE3=You Don't Love Me Like You Used To Do
TTITLE4=Sourwood Mountain
TTITLE5=Stop That Ticklin'
TTITLE6=Pick Me Up on Your Way Down
TTITLE7=Sundown and Sorrow
TTITLE8=Blue Ridge Mountain Blues
TTITLE9=Run Molly Run
TTITLE10=Cheek To Cheek With The Blues
TTITLE11=Don't Rush Me
TTITLE12=Wabash Cannonball
TTITLE13=Tennessee Walking Horse
TTITLE14=It Makes No Difference Now
TTITLE15=Talkin' Boogie
TTITLE16=White Lightning
TTITLE17=Nobody's Business
TTITLE18=I'm Happy Every Day I Live
TTITLE19=Gotta Travel On
TTITLE20=Short Recess
TTITLE21=Corinne Corinna
TTITLE22=It'll Take Me a Long Time To Live That Down
TTITLE23=Stardust
TTITLE24=Somebody Touched Me
TTITLE25=Bugle Call Rag
TTITLE26=There He Goes
TTITLE27=Make Him Behave
TTITLE28=Chicken Reel
TTITLE29=Gone and Left Me Blues
TTITLE30=Let's Pull Together
EXTD=
EXTT0=
EXTT1=
EXTT2=
EXTT3=
EXTT4=
EXTT5=
EXTT6=
EXTT7=
EXTT8=
EXTT9=
EXTT10=
EXTT11=
EXTT12=
EXTT13=
EXTT14=
EXTT15=
EXTT16=
EXTT17=
EXTT18=
EXTT19=
EXTT20=
EXTT21=
EXTT22=
EXTT23=
EXTT24=
EXTT25=
EXTT26=
EXTT27=
EXTT28=
EXTT29=
EXTT30=
PLAYORDER=
